PathFileType	4	(X/Y/Z)	C:/Users/dbak576/Desktop/Duncan Bakke Modelling Files/H27s1/Static_H27s1.trc	
DataRate	CameraRate	NumFrames	NumMarkers	Units	OrigDataRate	OrigDataStartFrame	OrigNumFrames	
200.00	200.00	5	61	mm	200.00	1493	70	
Frame#	Time	LFHD			RFHD			LBHD			RBHD			C7			T10			CLAV			STRN			RBack			LASI			RASI			LPSI			RPSI			RACR1			RUA1			RElbow			RElbowM			RFA1			RWRR			RWRU			RCAR			LACR1			LUA1			LElbow			LElbowM			LFA1			LWRR			LWRU			LCAR			RTH1			RTH3			RTH2			RTH4			RLFC			RMFC			RTB1			RTB3			RTB2			RTB4			RLMAL			RMMAL			RCAL			RMT1			RMT5			RToe			LTH1			LTH3			LTH2			LTH4			LLFC			LMFC			LTB1			LTB3			LTB2			LTB4			LLMAL			LMMAL			LCAL			LMT1			LMT5			LToe			
		X1	Y1	Z1	X2	Y2	Z2	X3	Y3	Z3	X4	Y4	Z4	X5	Y5	Z5	X6	Y6	Z6	X7	Y7	Z7	X8	Y8	Z8	X9	Y9	Z9	X10	Y10	Z10	X11	Y11	Z11	X12	Y12	Z12	X13	Y13	Z13	X14	Y14	Z14	X15	Y15	Z15	X16	Y16	Z16	X17	Y17	Z17	X18	Y18	Z18	X19	Y19	Z19	X20	Y20	Z20	X21	Y21	Z21	X22	Y22	Z22	X23	Y23	Z23	X24	Y24	Z24	X25	Y25	Z25	X26	Y26	Z26	X27	Y27	Z27	X28	Y28	Z28	X29	Y29	Z29	X30	Y30	Z30	X31	Y31	Z31	X32	Y32	Z32	X33	Y33	Z33	X34	Y34	Z34	X35	Y35	Z35	X36	Y36	Z36	X37	Y37	Z37	X38	Y38	Z38	X39	Y39	Z39	X40	Y40	Z40	X41	Y41	Z41	X42	Y42	Z42	X43	Y43	Z43	X44	Y44	Z44	X45	Y45	Z45	X46	Y46	Z46	X47	Y47	Z47	X48	Y48	Z48	X49	Y49	Z49	X50	Y50	Z50	X51	Y51	Z51	X52	Y52	Z52	X53	Y53	Z53	X54	Y54	Z54	X55	Y55	Z55	X56	Y56	Z56	X57	Y57	Z57	X58	Y58	Z58	X59	Y59	Z59	X60	Y60	Z60	X61	Y61	Z61	

27	0.130	-50.94526	-364.88803	1605.51355	43.32119	-363.66956	1600.56238	-81.32549	-519.01404	1560.21558	62.22846	-517.62335	1561.72229	-13.43874	-558.50189	1420.40845	-22.72583	-577.62396	1141.88416	-14.41437	-411.30676	1365.94727	-10.99171	-344.20914	1279.15234	89.06902	-594.67804	1314.20068	-147.09505	-308.02222	969.05365	139.82346	-331.50311	986.60651	-67.27631	-556.55212	976.66272	20.68552	-563.49402	979.66583	107.74365	-505.93185	1417.56274	279.89471	-521.45972	1391.55835	398.27734	-537.84186	1335.17273	396.93576	-458.52902	1284.38013	534.28491	-533.67560	1308.47339	648.91907	-505.61426	1378.02808	654.15509	-490.60049	1310.08118	705.69489	-539.91504	1343.89526	-139.70828	-507.76428	1417.10950	-308.68179	-512.63776	1398.10596	-433.68155	-508.12393	1359.37903	-432.12341	-454.01010	1311.18518	-562.66980	-497.59152	1346.19287	-676.87244	-470.64880	1421.23108	-679.84076	-448.65378	1357.99207	-733.40460	-491.00287	1393.76501	221.25171	-411.97052	756.06677	195.95164	-444.52951	588.67566	185.97194	-374.77515	665.82184	206.44666	-429.93167	671.54803	181.12166	-464.09998	504.44254	32.42749	-463.07776	483.47296	135.97052	-426.92041	344.26379	159.34906	-442.21152	174.81888	202.52869	-460.37439	269.08023	148.48059	-437.40607	254.99881	197.45978	-489.03156	65.77000	116.33764	-464.76901	61.77002	161.32874	-542.39319	25.19755	153.03639	-364.90771	33.45642	230.95943	-404.06378	27.69402	189.73976	-298.19366	27.39041	-245.08591	-410.05536	765.53491	-198.53589	-446.01215	605.17670	-199.56792	-372.65945	681.22986	-216.51192	-428.54901	687.08533	-177.30463	-469.15170	485.27390	-29.00874	-481.15707	473.66394	-118.71784	-433.15247	339.88797	-139.09230	-450.72052	169.40739	-184.32732	-465.55521	261.35999	-127.42384	-442.88800	254.03630	-172.40631	-496.25156	62.38574	-89.96887	-473.04395	56.91404	-132.74971	-553.74884	28.69704	-123.49921	-372.44382	27.57323	-199.06445	-410.92810	25.03096	-160.57530	-305.79965	22.65342 
28	0.135	-50.97242	-364.92279	1605.53198	43.03637	-364.34799	1600.39063	-81.37222	-519.08539	1560.23206	62.62141	-516.84192	1561.84436	-13.45572	-558.54639	1420.41907	-22.71173	-577.64154	1141.89551	-14.46256	-411.30838	1365.96460	-10.97101	-344.25424	1279.16528	89.14619	-594.68433	1314.19287	-147.07474	-308.06171	969.05023	139.79419	-331.49857	986.64807	-67.30444	-556.57111	976.67352	20.77371	-563.24725	979.58093	107.76100	-505.97150	1417.55701	279.91479	-521.35358	1391.46179	398.27164	-537.85736	1335.16956	396.96982	-458.59906	1284.36206	534.28864	-533.68573	1308.46619	648.91431	-505.59427	1378.04077	654.32263	-490.37555	1310.13318	705.72333	-539.90326	1343.90625	-139.69402	-507.77377	1417.10901	-308.64340	-512.55792	1398.09180	-433.65503	-508.07114	1359.33215	-432.13431	-454.24466	1311.02649	-562.42926	-497.76114	1346.44995	-676.86389	-470.55560	1421.20508	-679.02942	-448.30591	1356.87439	-733.56635	-491.13965	1393.76196	221.24945	-411.97198	756.06097	195.94444	-444.52274	588.66479	185.97797	-374.77408	665.81183	206.45689	-429.94650	671.53729	181.11690	-464.12653	504.46732	32.17232	-463.27304	483.71329	135.98447	-426.90601	344.26419	159.33691	-442.21237	174.83836	202.53926	-460.39224	269.08765	148.54324	-437.41507	254.92427	197.46866	-488.99158	65.71098	116.34254	-464.76630	61.78163	161.26694	-542.50830	25.29368	153.03264	-364.95462	33.43871	231.07100	-404.04657	27.87326	189.74124	-298.18704	27.38580	-245.07448	-410.06470	765.52716	-198.52530	-446.00500	605.16376	-199.57477	-372.67889	681.24036	-216.46034	-428.54868	687.06830	-177.32634	-469.16809	485.26953	-29.31488	-481.03146	473.57004	-118.69457	-433.15897	339.89502	-139.11147	-450.71603	169.42508	-184.30437	-465.56918	261.35876	-127.42950	-442.89774	254.02751	-172.43025	-496.30188	62.39834	-90.13142	-472.91699	57.08338	-132.91081	-553.72327	28.69750	-123.50921	-372.43347	27.55963	-199.07053	-410.93170	25.04551	-160.59602	-305.82819	22.64640 
29	0.140	-50.98579	-364.95340	1605.56091	42.80169	-364.92899	1600.26538	-81.42471	-519.17157	1560.25952	62.92988	-516.15631	1561.96350	-13.46612	-558.57916	1420.43164	-22.69665	-577.65558	1141.89331	-14.52740	-411.32761	1365.95752	-10.95787	-344.28665	1279.17029	89.21958	-594.67792	1314.17371	-147.07744	-308.06570	969.03186	139.77817	-331.48770	986.66437	-67.33128	-556.58710	976.68591	20.86739	-562.92761	979.44885	107.76016	-506.00601	1417.55688	279.94919	-521.27252	1391.39673	398.27075	-537.85803	1335.16443	397.04239	-458.63876	1284.29236	534.29828	-533.69733	1308.47205	648.90479	-505.58011	1378.07397	654.55054	-490.36371	1310.19153	705.75946	-539.88678	1343.91296	-139.71304	-507.83124	1417.13354	-308.60251	-512.51642	1398.05042	-433.62442	-508.03436	1359.29700	-432.17065	-454.53082	1310.85339	-562.22980	-498.02811	1346.77197	-676.88275	-470.45984	1421.19104	-678.09119	-447.97299	1355.88855	-733.81030	-491.27316	1393.87561	221.24609	-411.97266	756.05255	195.93802	-444.51559	588.65778	185.98325	-374.77267	665.80426	206.46371	-429.96390	671.52106	181.11349	-464.15085	504.48203	31.88048	-463.44815	483.97879	135.99886	-426.87958	344.27048	159.31845	-442.21143	174.86227	202.54826	-460.41284	269.09320	148.62697	-437.43027	254.82187	197.41101	-489.01324	65.62231	116.35120	-464.75751	61.79311	161.22853	-542.70691	25.33209	153.06607	-364.94574	33.42043	231.26213	-403.90359	28.24430	189.74350	-298.18027	27.40227	-245.01895	-410.07770	765.50891	-198.49605	-446.00287	605.15436	-199.58813	-372.69745	681.24237	-216.43724	-428.54684	687.06342	-177.31516	-469.18976	485.27222	-29.47276	-480.92545	473.65131	-118.66541	-433.17126	339.90552	-139.12689	-450.71719	169.44023	-184.28593	-465.58508	261.36340	-127.42200	-442.92099	254.03094	-172.45375	-496.35413	62.40944	-90.28050	-472.77505	57.24675	-133.10811	-553.69891	28.69141	-123.51890	-372.43347	27.55357	-199.05775	-410.94260	25.06579	-160.61411	-305.84882	22.66821 
30	0.145	-50.98442	-365.00470	1605.60693	42.64396	-365.36600	1600.22668	-81.49432	-519.21118	1560.25867	63.15372	-515.53674	1562.04224	-13.47094	-558.60345	1420.45410	-22.68418	-577.66168	1141.88123	-14.59592	-411.35254	1365.93433	-10.95744	-344.30298	1279.16028	89.27999	-594.65631	1314.15137	-147.09840	-308.03839	969.00525	139.77545	-331.47644	986.65344	-67.35361	-556.60529	976.69373	21.03316	-562.62689	979.29669	107.75491	-506.03601	1417.55505	279.94388	-521.32935	1391.48621	398.28464	-537.85895	1335.15796	397.11319	-458.62973	1284.19995	534.31329	-533.70642	1308.49146	648.88818	-505.55875	1378.11304	654.72064	-490.41711	1310.22278	705.79449	-539.86340	1343.93372	-139.72946	-507.86890	1417.13843	-308.55646	-512.51270	1397.98560	-433.59357	-508.00974	1359.26477	-432.18555	-454.80170	1310.79761	-562.11938	-498.33359	1347.08789	-676.89240	-470.41275	1421.15381	-677.68591	-447.85919	1355.03870	-734.10437	-491.38419	1393.95081	221.24153	-411.97260	756.04926	195.93214	-444.50833	588.65527	185.98927	-374.77234	665.79797	206.46577	-429.98288	671.49908	181.11279	-464.16150	504.50089	31.56503	-463.60779	484.28809	136.01219	-426.84000	344.27972	159.29732	-442.20724	174.88255	202.55913	-460.43384	269.09515	148.73422	-437.45520	254.68871	197.33162	-488.98865	65.51326	116.36018	-464.74658	61.80530	161.20352	-542.94812	25.34549	153.11850	-364.91431	33.43481	231.44897	-403.66650	28.66139	189.75002	-298.16302	27.43155	-244.94183	-410.08795	765.49664	-198.47549	-445.99982	605.13892	-199.60594	-372.71185	681.24469	-216.44205	-428.55951	687.07666	-177.30319	-469.20233	485.27948	-29.45412	-480.87479	473.88263	-118.64078	-433.17899	339.92819	-139.13196	-450.71701	169.44897	-184.27719	-465.59549	261.37131	-127.40487	-442.94800	254.03407	-172.46831	-496.38193	62.37488	-90.40406	-472.62918	57.38642	-133.29549	-553.66650	28.69511	-123.52794	-372.43671	27.55545	-199.05260	-410.95389	25.08407	-160.58707	-305.87421	22.73301 
31	0.150	-50.98412	-365.06772	1605.65369	42.58812	-365.61185	1600.24329	-81.57901	-519.20959	1560.24658	63.30650	-515.02136	1562.06543	-13.46959	-558.61487	1420.47302	-22.67391	-577.65961	1141.87292	-14.65595	-411.36877	1365.90967	-10.96447	-344.31381	1279.14319	89.33124	-594.62726	1314.12549	-147.12682	-308.00085	968.99048	139.78413	-331.46588	986.62250	-67.35230	-556.61224	976.69830	21.26288	-562.40466	979.15967	107.74105	-506.06458	1417.55762	279.95471	-521.39221	1391.55334	398.31229	-537.85718	1335.15173	397.19193	-458.60464	1284.10852	534.32794	-533.71082	1308.51709	648.86578	-505.53262	1378.16150	654.84821	-490.60007	1310.24670	705.83173	-539.81128	1343.99146	-139.74100	-507.88028	1417.13940	-308.51855	-512.54547	1397.92676	-433.57260	-508.00281	1359.24353	-432.19211	-455.05829	1310.67090	-562.12140	-498.60413	1347.34204	-676.93018	-470.38525	1421.11902	-677.67542	-447.96069	1354.52087	-734.36951	-491.49503	1393.94678	221.23982	-411.97296	756.04852	195.92691	-444.50357	588.65527	185.99205	-374.77127	665.79645	206.46361	-429.99951	671.47339	181.11659	-464.16751	504.48914	31.31708	-463.70041	484.54590	136.02242	-426.79208	344.29611	159.27438	-442.20181	174.89934	202.57054	-460.45053	269.09894	148.84239	-437.48349	254.55873	197.24120	-488.88281	65.40946	116.37362	-464.73111	61.82160	161.01137	-542.99847	25.38925	153.17093	-364.85355	33.45774	231.60156	-403.50455	28.90334	189.76448	-298.13242	27.43192	-244.87955	-410.10159	765.48523	-198.44794	-446.00021	605.13025	-199.62730	-372.71790	681.24402	-216.45454	-428.58023	687.10132	-177.29134	-469.20486	485.26724	-29.15917	-480.92270	474.24738	-118.61659	-433.18967	339.94913	-139.12982	-450.71863	169.45027	-184.27484	-465.60107	261.37430	-127.38724	-442.97339	254.03708	-172.46437	-496.41534	62.39183	-90.49314	-472.48621	57.47684	-133.42802	-553.64392	28.71885	-123.52809	-372.43979	27.55630	-199.04863	-410.96805	25.10174	-160.59198	-305.88107	22.71795 
